<svg width="175" height="16" viewBox="0 0 175 16" fill="none" xmlns="http://www.w3.org/2000/svg">
<path d="M5.5 0.96C6.98 0.96 8.27333 1.25333 9.38 1.84C10.4867 2.42667 11.34 3.25333 11.94 4.32C12.5533 5.37333 12.86 6.59333 12.86 7.98C12.86 9.35333 12.5533 10.5733 11.94 11.64C11.34 12.7067 10.48 13.5333 9.36 14.12C8.25333 14.7067 6.96667 15 5.5 15H0.24V0.96H5.5ZM5.28 12.04C6.57333 12.04 7.58 11.6867 8.3 10.98C9.02 10.2733 9.38 9.27333 9.38 7.98C9.38 6.68667 9.02 5.68 8.3 4.96C7.58 4.24 6.57333 3.88 5.28 3.88H3.66V12.04H5.28ZM18.1913 0.96V15H14.7713V0.96H18.1913ZM25.7497 15.14C24.723 15.14 23.803 14.9733 22.9897 14.64C22.1764 14.3067 21.523 13.8133 21.0297 13.16C20.5497 12.5067 20.2964 11.72 20.2697 10.8H23.9097C23.963 11.32 24.143 11.72 24.4497 12C24.7564 12.2667 25.1564 12.4 25.6497 12.4C26.1564 12.4 26.5564 12.2867 26.8497 12.06C27.143 11.82 27.2897 11.4933 27.2897 11.08C27.2897 10.7333 27.1697 10.4467 26.9297 10.22C26.703 9.99333 26.4164 9.80667 26.0697 9.66C25.7364 9.51333 25.2564 9.34667 24.6297 9.16C23.723 8.88 22.983 8.6 22.4097 8.32C21.8364 8.04 21.343 7.62667 20.9297 7.08C20.5164 6.53333 20.3097 5.82 20.3097 4.94C20.3097 3.63333 20.783 2.61333 21.7297 1.88C22.6764 1.13333 23.9097 0.76 25.4297 0.76C26.9764 0.76 28.223 1.13333 29.1697 1.88C30.1164 2.61333 30.623 3.64 30.6897 4.96H26.9897C26.963 4.50667 26.7964 4.15333 26.4897 3.9C26.183 3.63333 25.7897 3.5 25.3097 3.5C24.8964 3.5 24.563 3.61333 24.3097 3.84C24.0564 4.05333 23.9297 4.36667 23.9297 4.78C23.9297 5.23333 24.143 5.58667 24.5697 5.84C24.9964 6.09333 25.663 6.36667 26.5697 6.66C27.4764 6.96667 28.2097 7.26 28.7697 7.54C29.343 7.82 29.8364 8.22667 30.2497 8.76C30.663 9.29333 30.8697 9.98 30.8697 10.82C30.8697 11.62 30.663 12.3467 30.2497 13C29.8497 13.6533 29.263 14.1733 28.4897 14.56C27.7164 14.9467 26.803 15.14 25.7497 15.14ZM38.0544 15.14C37.0277 15.14 36.1077 14.9733 35.2944 14.64C34.481 14.3067 33.8277 13.8133 33.3344 13.16C32.8544 12.5067 32.601 11.72 32.5744 10.8H36.2144C36.2677 11.32 36.4477 11.72 36.7544 12C37.061 12.2667 37.461 12.4 37.9544 12.4C38.461 12.4 38.861 12.2867 39.1544 12.06C39.4477 11.82 39.5944 11.4933 39.5944 11.08C39.5944 10.7333 39.4744 10.4467 39.2344 10.22C39.0077 9.99333 38.721 9.80667 38.3744 9.66C38.041 9.51333 37.561 9.34667 36.9344 9.16C36.0277 8.88 35.2877 8.6 34.7144 8.32C34.141 8.04 33.6477 7.62667 33.2344 7.08C32.821 6.53333 32.6144 5.82 32.6144 4.94C32.6144 3.63333 33.0877 2.61333 34.0344 1.88C34.981 1.13333 36.2144 0.76 37.7344 0.76C39.281 0.76 40.5277 1.13333 41.4744 1.88C42.421 2.61333 42.9277 3.64 42.9944 4.96H39.2944C39.2677 4.50667 39.101 4.15333 38.7944 3.9C38.4877 3.63333 38.0944 3.5 37.6144 3.5C37.201 3.5 36.8677 3.61333 36.6144 3.84C36.361 4.05333 36.2344 4.36667 36.2344 4.78C36.2344 5.23333 36.4477 5.58667 36.8744 5.84C37.301 6.09333 37.9677 6.36667 38.8744 6.66C39.781 6.96667 40.5144 7.26 41.0744 7.54C41.6477 7.82 42.141 8.22667 42.5544 8.76C42.9677 9.29333 43.1744 9.98 43.1744 10.82C43.1744 11.62 42.9677 12.3467 42.5544 13C42.1544 13.6533 41.5677 14.1733 40.7944 14.56C40.021 14.9467 39.1077 15.14 38.0544 15.14ZM57.3191 0.96L52.4591 10.36V15H49.0391V10.36L44.1791 0.96H48.0591L50.7791 6.84L53.4791 0.96H57.3191ZM74.597 0.96V15H71.177V6.58L68.037 15H65.277L62.117 6.56V15H58.697V0.96H62.737L66.677 10.68L70.577 0.96H74.597ZM92.9564 0.96V15H89.5364V6.58L86.3964 15H83.6364L80.4764 6.56V15H77.0564V0.96H81.0964L85.0364 10.68L88.9364 0.96H92.9564ZM98.8358 3.7V6.54H103.416V9.18H98.8358V12.26H104.016V15H95.4158V0.96H104.016V3.7H98.8358ZM116.336 0.96V3.7H112.616V15H109.196V3.7H105.476V0.96H116.336ZM125.213 15L122.293 9.7H121.473V15H118.053V0.96H123.793C124.899 0.96 125.839 1.15333 126.613 1.54C127.399 1.92667 127.986 2.46 128.373 3.14C128.759 3.80667 128.953 4.55333 128.953 5.38C128.953 6.31333 128.686 7.14667 128.153 7.88C127.633 8.61333 126.859 9.13333 125.833 9.44L129.073 15H125.213ZM121.473 7.28H123.593C124.219 7.28 124.686 7.12667 124.993 6.82C125.313 6.51333 125.473 6.08 125.473 5.52C125.473 4.98667 125.313 4.56667 124.993 4.26C124.686 3.95333 124.219 3.8 123.593 3.8H121.473V7.28ZM134.519 0.96V15H131.099V0.96H134.519ZM136.418 7.96C136.418 6.57333 136.718 5.34 137.318 4.26C137.918 3.16667 138.751 2.32 139.818 1.72C140.898 1.10667 142.118 0.799999 143.478 0.799999C145.144 0.799999 146.571 1.24 147.758 2.12C148.944 3 149.738 4.2 150.138 5.72H146.378C146.098 5.13333 145.698 4.68667 145.178 4.38C144.671 4.07333 144.091 3.92 143.438 3.92C142.384 3.92 141.531 4.28667 140.878 5.02C140.224 5.75333 139.898 6.73333 139.898 7.96C139.898 9.18667 140.224 10.1667 140.878 10.9C141.531 11.6333 142.384 12 143.438 12C144.091 12 144.671 11.8467 145.178 11.54C145.698 11.2333 146.098 10.7867 146.378 10.2H150.138C149.738 11.72 148.944 12.92 147.758 13.8C146.571 14.6667 145.144 15.1 143.478 15.1C142.118 15.1 140.898 14.8 139.818 14.2C138.751 13.5867 137.918 12.74 137.318 11.66C136.718 10.58 136.418 9.34667 136.418 7.96ZM160.972 12.52H155.732L154.892 15H151.312L156.392 0.96H160.352L165.432 15H161.812L160.972 12.52ZM160.092 9.88L158.352 4.74L156.632 9.88H160.092ZM170.398 12.36H174.878V15H166.978V0.96H170.398V12.36Z" fill="black"/>
</svg>
