<svg width="47" height="47" viewBox="0 0 47 47" fill="none" xmlns="http://www.w3.org/2000/svg">
<path fill-rule="evenodd" clip-rule="evenodd" d="M30.4019 14.5647C30.4019 16.471 29.6446 18.2991 28.2967 19.647C26.9488 20.995 25.1206 21.7522 23.2144 21.7522C21.3081 21.7522 19.48 20.995 18.132 19.647C16.7841 18.2991 16.0269 16.471 16.0269 14.5647C16.0269 12.6585 16.7841 10.8303 18.132 9.4824C19.48 8.13448 21.3081 7.37724 23.2144 7.37724C25.1206 7.37724 26.9488 8.13448 28.2967 9.4824C29.6446 10.8303 30.4019 12.6585 30.4019 14.5647ZM30.5772 23.3996C32.3922 21.8863 33.6969 19.8507 34.3142 17.5695C34.9311 15.2883 34.8302 12.8725 34.0255 10.6507C33.2208 8.4288 31.7511 6.50879 29.8165 5.15182C27.8818 3.79487 25.576 3.06689 23.2129 3.06689C20.8498 3.06689 18.5441 3.79487 16.6094 5.15182C14.6747 6.50879 13.205 8.4288 12.4003 10.6507C11.5956 12.8725 11.4948 15.2883 12.1118 17.5695C12.7288 19.8507 14.0336 21.8863 15.8486 23.3996C13.0184 24.7376 10.6054 26.8201 8.86782 29.4242C7.13025 32.0284 6.13358 35.0557 5.98448 38.1829C5.97062 38.7464 6.17791 39.2929 6.56201 39.7052C6.94608 40.1177 7.4764 40.3636 8.03944 40.3897C8.60245 40.4162 9.15339 40.221 9.57426 39.8461C9.99513 39.4712 10.2525 38.9465 10.2912 38.3841C10.448 35.0621 11.8779 31.928 14.2843 29.6326C16.6907 27.337 19.8887 26.0563 23.2144 26.0563C26.54 26.0563 29.738 27.337 32.1444 29.6326C34.5508 31.928 35.9808 35.0621 36.1375 38.3841C36.1447 38.6713 36.2088 38.9539 36.3267 39.2159C36.4445 39.4778 36.6136 39.7135 36.8237 39.909C37.0339 40.1048 37.2812 40.2566 37.5505 40.3555C37.8202 40.4544 38.1069 40.4984 38.3938 40.4849C38.6807 40.4717 38.9619 40.4009 39.2212 40.2773C39.4802 40.1537 39.7123 39.9797 39.9032 39.7653C40.0943 39.5508 40.2404 39.3004 40.3333 39.0287C40.4264 38.757 40.4641 38.4692 40.4442 38.1829C40.2947 35.0554 39.2977 32.0278 37.5597 29.4236C35.8215 26.8196 33.408 24.7372 30.5772 23.3996Z" fill="#24292E"/>
</svg>
