<svg width="25" height="27" viewBox="0 0 25 27" fill="none" xmlns="http://www.w3.org/2000/svg">
<path fill-rule="evenodd" clip-rule="evenodd" d="M17.8938 11.5151C17.8938 12.4872 17.7127 13.4498 17.3607 14.3479C17.0089 15.246 16.4931 16.0621 15.843 16.7495C15.1928 17.4368 14.4209 17.9821 13.5714 18.3542C12.7219 18.7262 11.8114 18.9176 10.8919 18.9176C9.97237 18.9176 9.06187 18.7262 8.21235 18.3542C7.36285 17.9821 6.59095 17.4368 5.94077 16.7495C5.29057 16.0621 4.77482 15.246 4.42294 14.3479C4.07105 13.4498 3.88995 12.4872 3.88995 11.5151C3.88995 9.5518 4.62764 7.66894 5.94077 6.2807C7.25388 4.89245 9.03484 4.11255 10.8919 4.11255C12.7489 4.11255 14.5299 4.89245 15.843 6.2807C17.1561 7.66894 17.8938 9.5518 17.8938 11.5151ZM16.6179 19.3124C14.742 20.8522 12.3815 21.5781 10.0171 21.3425C7.65268 21.1071 5.46202 19.9278 3.89112 18.0448C2.32019 16.1618 1.48712 13.7166 1.56146 11.2071C1.63583 8.69752 2.61202 6.31225 4.29132 4.53688C5.97063 2.7615 8.22679 1.72945 10.6005 1.65084C12.9743 1.57224 15.2871 2.45298 17.0682 4.11378C18.8494 5.77457 19.9648 8.09056 20.1875 10.5903C20.4103 13.09 19.7237 15.5855 18.2673 17.5687L22.9975 22.5696C23.1121 22.6826 23.2041 22.8188 23.2679 22.9701C23.3317 23.1215 23.3659 23.2848 23.3687 23.4505C23.3715 23.6161 23.3426 23.7806 23.2839 23.9343C23.2253 24.0879 23.1378 24.2274 23.027 24.3445C22.9162 24.4618 22.7843 24.5541 22.639 24.6161C22.4936 24.6781 22.338 24.7087 22.1813 24.7058C22.0247 24.7028 21.87 24.6666 21.727 24.5992C21.5838 24.5317 21.455 24.4345 21.3481 24.3133L16.6179 19.3124Z" fill="#24292E"/>
</svg>
