<svg width="30" height="30" viewBox="0 0 30 30" fill="none" xmlns="http://www.w3.org/2000/svg">
<path fill-rule="evenodd" clip-rule="evenodd" d="M10.125 24.25C11.1605 24.25 12 25.0895 12 26.125C12 27.1605 11.1605 28 10.125 28C9.08947 28 8.25 27.1605 8.25 26.125C8.25 25.0895 9.08947 24.25 10.125 24.25ZM21.375 24.25C22.4105 24.25 23.25 25.0895 23.25 26.125C23.25 27.1605 22.4105 28 21.375 28C20.3395 28 19.5 27.1605 19.5 26.125C19.5 25.0895 20.3395 24.25 21.375 24.25ZM3.25 3H5.75C6.31951 3 6.81038 3.38355 6.95632 3.92217L6.98546 4.05993L7.59163 8H25.75C26.4997 8 27.0687 8.65085 26.9939 9.37543L26.9702 9.52116L24.9053 18.8135C24.5406 20.4547 23.1324 21.6429 21.4724 21.7431L21.2446 21.75H10.3948C8.61794 21.75 7.09621 20.5055 6.72832 18.7874L6.6884 18.5702L4.6776 5.5H3.25C2.55964 5.5 2 4.94036 2 4.25C2 3.60896 2.48255 3.08062 3.10422 3.00841L3.25 3H5.75H3.25ZM24.1917 10.5H7.97625L9.15933 18.1901C9.24593 18.753 9.69966 19.1798 10.2542 19.2421L10.3948 19.25H21.2446C21.7816 19.25 22.2526 18.9081 22.4253 18.4106L22.4648 18.2712L24.1917 10.5Z" fill="white"/>
</svg>
